<svg width="18" height="22" viewBox="0 0 18 22" fill="none" xmlns="http://www.w3.org/2000/svg">
<g clip-path="url(#clip0_6_4785)">
<g clip-path="url(#clip1_6_4785)">
<g clip-path="url(#clip2_6_4785)">
<path d="M9.38496 0.323547C4.94935 0.323547 1.35718 5.04016 1.35718 10.86C1.35718 16.6799 4.94935 21.3964 9.38496 21.3964C13.8205 21.3964 17.4127 16.6799 17.4127 10.86C17.4127 5.04016 13.8205 0.323547 9.38496 0.323547ZM14.8622 11.776C14.6894 11.776 13.9527 11.7304 13.0534 11.6445C11.4021 11.4926 10.0201 12.8691 10.1725 14.5139C10.2538 15.4096 10.3046 16.1434 10.3046 16.3155C10.3046 16.8215 9.89304 17.2315 9.38496 17.2315C8.87687 17.2315 8.46532 16.8215 8.46532 16.3155C8.46532 16.1434 8.51104 15.4096 8.59742 14.5139C8.74984 12.8691 7.36785 11.4926 5.71656 11.6445C4.81725 11.7254 4.08052 11.776 3.90777 11.776C3.39969 11.776 2.98814 11.366 2.98814 10.86C2.98814 10.354 3.39969 9.94399 3.90777 9.94399C4.08052 9.94399 4.81725 9.98961 5.71656 10.0756C7.36785 10.2274 8.74984 8.85089 8.59742 7.20615C8.51612 6.3104 8.46532 5.57659 8.46532 5.40453C8.46532 4.89846 8.87687 4.48854 9.38496 4.48854C9.89304 4.48854 10.3046 4.89846 10.3046 5.40453C10.3046 5.57659 10.2589 6.3104 10.1725 7.20615C10.0201 8.85089 11.4021 10.2274 13.0534 10.0756C13.9527 9.99461 14.6894 9.94399 14.8622 9.94399C15.3702 9.94399 15.7818 10.354 15.7818 10.86C15.7818 11.366 15.3702 11.776 14.8622 11.776Z" fill="#100D08"/>
</g>
</g>
</g>
<defs>
<clipPath id="clip0_6_4785">
<rect width="17" height="21.72" fill="white" transform="translate(0.88501)"/>
</clipPath>
<clipPath id="clip1_6_4785">
<rect width="17" height="21.72" fill="white" transform="translate(0.88501)"/>
</clipPath>
<clipPath id="clip2_6_4785">
<rect width="17" height="21.7222" fill="white" transform="translate(0.88501 -0.00109863)"/>
</clipPath>
</defs>
</svg>
